G04 ================== begin FILE IDENTIFICATION RECORD ==================*
G04 Layout Name:  stabilizator_ers_.brd*
G04 Film Name:    SPTOP*
G04 File Format:  Gerber RS274X*
G04 File Origin:  Cadence Allegro 24.1-P001*
G04 Origin Date:  Fri Dec 13 21:22:57 2024*
G04 *
G04 Layer:  VIA CLASS/PASTEMASK_TOP*
G04 Layer:  PIN/PASTEMASK_TOP*
G04 Layer:  PACKAGE GEOMETRY/PASTEMASK_TOP*
G04 Layer:  DRC ERROR CLASS/PASTEMASK_TOP*
G04 *
G04 Offset:    (0.00 0.00)*
G04 Mirror:    No*
G04 Mode:      Positive*
G04 Rotation:  0*
G04 FullContactRelief:  No*
G04 UndefLineWidth:     0.10*
G04 ================== end FILE IDENTIFICATION RECORD ====================*
%FSLAX25Y25*MOIN*%
%IR0*IPPOS*OFA0.00000B0.00000*MIA0B0*SFA1.00000B1.00000*%
%ADD23R,.108X.0684*%
%ADD14R,.0684X.108*%
%ADD11C,.03543*%
%ADD19R,.1063X.05669*%
%ADD21R,.04724X.04724*%
%ADD18R,.0315X.04331*%
%ADD13R,.04331X.0315*%
%ADD20R,.20906X.22323*%
%ADD16R,.0374X.02126*%
%ADD17R,.02126X.0374*%
%ADD24R,.04961X.05315*%
%ADD10R,.05315X.04961*%
%ADD22R,.05118X.07874*%
%ADD15R,.05709X.03937*%
%ADD12R,.03937X.05709*%
%LPD*%
G75*
G54D10*
X23937Y32500D03*
X16063D03*
G54D20*
X110236Y22500D03*
G54D11*
X20000Y20000D03*
X137480Y137480D03*
G54D12*
X16260Y42500D03*
X23740D03*
X16260Y62500D03*
X23740D03*
Y52500D03*
X16260D03*
X17520Y85039D03*
X25000D03*
X23740Y72500D03*
X16260D03*
X17520Y94488D03*
X25000D03*
X17914Y104000D03*
X25394D03*
X109740Y126000D03*
X102260D03*
X136260Y67500D03*
X143740D03*
X138740Y85000D03*
X131260D03*
X131299Y94000D03*
X138779D03*
X144291Y126378D03*
X136811D03*
G54D21*
X94291Y61614D03*
Y70670D03*
X118327Y92972D03*
Y102028D03*
G54D22*
X115945Y66142D03*
X96673Y97500D03*
G54D13*
X15900Y118100D03*
X24000Y114000D03*
Y122200D03*
G54D14*
X17500Y140000D03*
X28000D03*
G54D23*
X140000Y12500D03*
Y23000D03*
G54D15*
X47244Y31693D03*
X56693D03*
X47244Y19094D03*
Y11614D03*
Y39173D03*
X56693D03*
X42126Y136260D03*
Y143740D03*
X74409Y61221D03*
Y68701D03*
X88583Y81299D03*
Y88779D03*
X71260Y138260D03*
Y145740D03*
X122500Y116260D03*
X116535Y142716D03*
Y135236D03*
X122500Y123740D03*
X105000Y146240D03*
Y138760D03*
X125000Y66260D03*
Y73740D03*
X142500Y106260D03*
Y113740D03*
X132500Y118740D03*
Y111260D03*
G54D24*
X125984Y133465D03*
Y141339D03*
G54D16*
X61024Y56693D03*
X52362Y52953D03*
Y60433D03*
X57086Y90260D03*
X38189Y89567D03*
X46851Y112205D03*
X38189Y108465D03*
Y115945D03*
X57086Y97740D03*
X55905Y112000D03*
X46851Y93307D03*
X38189Y97047D03*
X65748Y94000D03*
X64567Y115740D03*
Y108260D03*
X84331Y117500D03*
X75669Y113760D03*
Y121240D03*
G54D17*
X42520Y70078D03*
X38780Y78740D03*
X46260D03*
X75000Y51831D03*
X78740Y43169D03*
X71260D03*
X82677Y137669D03*
X78937Y146331D03*
X86417D03*
X106299Y42913D03*
X102559Y51575D03*
X110039D03*
X132283Y45275D03*
X128543Y53937D03*
X136023D03*
G54D18*
X58400Y129400D03*
X54300Y137500D03*
X62500D03*
G54D19*
X83661Y13484D03*
Y22500D03*
Y31516D03*
M02*
