G04 ================== begin FILE IDENTIFICATION RECORD ==================*
G04 Layout Name:  stabilizator_ers_.brd*
G04 Film Name:    TOP*
G04 File Format:  Gerber RS274X*
G04 File Origin:  Cadence Allegro 24.1-P001*
G04 Origin Date:  Fri Dec 13 21:22:57 2024*
G04 *
G04 Layer:  ETCH/TOP*
G04 Layer:  PIN/TOP*
G04 Layer:  VIA CLASS/TOP*
G04 *
G04 Offset:    (0.00 0.00)*
G04 Mirror:    No*
G04 Mode:      Positive*
G04 Rotation:  0*
G04 FullContactRelief:  No*
G04 UndefLineWidth:     0.10*
G04 ================== end FILE IDENTIFICATION RECORD ====================*
%FSLAX25Y25*MOIN*%
%IR0*IPPOS*OFA0.00000B0.00000*MIA0B0*SFA1.00000B1.00000*%
%ADD24R,.12X.076*%
%ADD14R,.076X.12*%
%ADD16C,.0315*%
%ADD22R,.05512X.05512*%
%ADD11C,.05906*%
%ADD20R,.11811X.06299*%
%ADD19R,.036X.05*%
%ADD13R,.05X.036*%
%ADD15R,.06102X.04724*%
%ADD12R,.04724X.06102*%
%ADD21R,.23228X.24803*%
%ADD25R,.05512X.05906*%
%ADD17R,.04252X.02756*%
%ADD18R,.02756X.04252*%
%ADD10R,.05906X.05512*%
%ADD23R,.05512X.08661*%
%ADD26C,.016*%
%ADD27C,.026*%
%ADD28C,.018*%
G75*
%LPD*%
G75*
G36*
G01X77239Y37500D02*
X83737D01*
X84928Y36309D01*
G03X86554Y35635I1627J1627D01*
G01X97785D01*
G02X98157Y35087I1J-400D01*
G03X98121Y34902I465J-186D01*
G01Y10098D01*
G03X98622Y9598I501J1D01*
G01X121850D01*
G03X122351Y10098I0J501D01*
G01Y34902D01*
G03X122315Y35087I-501J-1D01*
G02X122687Y35635I372J148D01*
G01X123611D01*
X125000Y34246D01*
Y7500D01*
X72500D01*
Y31161D01*
G02X73202Y31424I400J1D01*
G03X73311Y31307I1737J1509D01*
G01X74729Y29889D01*
G03X76356Y29215I1627J1627D01*
G01X77255D01*
Y28366D01*
G03X77756Y27865I501J0D01*
G01X89567D01*
G03X90068Y28366I0J501D01*
G01Y34665D01*
G03X89567Y35166I-501J0D01*
G01X77239D01*
Y37500D01*
G37*
%LPC*%
G75*
G36*
G01X77255Y19350D02*
Y25650D01*
G02X77756Y26150I501J-1D01*
G01X89567D01*
G02X90068Y25650I0J-501D01*
G01Y19350D01*
G02X89567Y18850I-501J1D01*
G01X77756D01*
G02X77255Y19350I0J501D01*
G37*
G36*
G01Y10335D02*
Y16634D01*
G02X77756Y17135I501J0D01*
G01X89567D01*
G02X90068Y16634I0J-501D01*
G01Y10335D01*
G02X89567Y9834I-501J0D01*
G01X77756D01*
G02X77255Y10335I0J501D01*
G37*
%LPD*%
G75*
G54D10*
X23937Y32500D03*
X16063D03*
G54D20*
X83661Y13484D03*
Y22500D03*
Y31516D03*
G54D11*
X20000Y20000D03*
X137480Y137480D03*
G54D21*
X110236Y22500D03*
G54D12*
X16260Y42500D03*
X23740D03*
X16260Y62500D03*
X23740D03*
Y52500D03*
X16260D03*
X17520Y85039D03*
X25000D03*
X23740Y72500D03*
X16260D03*
X17520Y94488D03*
X25000D03*
X17914Y104000D03*
X25394D03*
X109740Y126000D03*
X102260D03*
X136260Y67500D03*
X143740D03*
X138740Y85000D03*
X131260D03*
X131299Y94000D03*
X138779D03*
X144291Y126378D03*
X136811D03*
G54D13*
X15900Y118100D03*
X24000Y114000D03*
Y122200D03*
G54D22*
X94291Y61614D03*
Y70670D03*
X118327Y92972D03*
Y102028D03*
G54D23*
X115945Y66142D03*
X96673Y97500D03*
G54D14*
X17500Y140000D03*
X28000D03*
G54D15*
X47244Y31693D03*
X56693D03*
X47244Y19094D03*
Y11614D03*
Y39173D03*
X56693D03*
X42126Y136260D03*
Y143740D03*
X74409Y61221D03*
Y68701D03*
X88583Y81299D03*
Y88779D03*
X71260Y138260D03*
Y145740D03*
X122500Y116260D03*
X116535Y142716D03*
Y135236D03*
X122500Y123740D03*
X105000Y146240D03*
Y138760D03*
X125000Y66260D03*
Y73740D03*
X142500Y106260D03*
Y113740D03*
X132500Y118740D03*
Y111260D03*
G54D24*
X140000Y12500D03*
Y23000D03*
G54D25*
X125984Y133465D03*
Y141339D03*
G54D16*
X59055Y11811D03*
X32358Y16535D03*
X68504Y18989D03*
X73228Y95669D03*
X77953Y102756D03*
X82677Y129921D03*
X120472Y49606D03*
X96673Y115000D03*
X145000Y35641D03*
X140000Y60000D03*
X145000Y85606D03*
X125000Y110000D03*
G54D26*
G01X10000Y85039D02*
Y94488D01*
G01X17520Y85039D02*
X10000D01*
G01D02*
Y81600D01*
X12860Y78740D01*
X32346D01*
G01X32500Y71334D02*
X31334Y72500D01*
X23740D01*
G01X10000Y118100D02*
Y128400D01*
X11600Y130000D01*
X26400D01*
X28000Y131600D01*
Y140000D01*
G01X15900Y118100D02*
X10000D01*
G01Y104000D02*
Y118100D01*
G01X17914Y104000D02*
X10000D01*
G01Y94488D02*
Y104000D01*
G01X17520Y94488D02*
X10000D01*
G01X73228Y11811D02*
X59055D01*
G01X32500Y71334D02*
X32358Y71193D01*
Y16535D01*
G01X32346Y78740D02*
X33071Y78016D01*
Y71905D01*
X32500Y71334D01*
G01X32346Y78740D02*
X38780D01*
G01X83661Y9634D02*
Y13484D01*
G01X77055D02*
X83661D01*
G01D02*
X90268D01*
G01X115000Y116352D02*
X111600D01*
X107953Y120000D01*
X96600D01*
X95600Y121000D01*
Y125784D01*
X95384Y126000D01*
G01X115000Y116352D02*
Y110000D01*
X125000D01*
G01X115000Y116352D02*
X118253D01*
X118346Y116260D01*
X122500D01*
G01X95384Y126000D02*
X102260D01*
G01X105000Y138760D02*
Y134100D01*
X103400Y132500D01*
X97200D01*
X95600Y130900D01*
Y126216D01*
X95384Y126000D01*
G01X140000Y23000D02*
Y31541D01*
X142206Y33747D01*
X143106D01*
X145000Y35641D01*
G01X125000Y66260D02*
Y60000D01*
X128740D01*
G01D02*
X140000D01*
G01X128543Y53937D02*
Y59803D01*
X128740Y60000D01*
G01X145000Y85606D02*
X143038D01*
X142432Y85000D01*
X138740D01*
G54D17*
X61024Y56693D03*
X52362Y52953D03*
Y60433D03*
X57086Y90260D03*
X38189Y89567D03*
X46851Y112205D03*
X38189Y108465D03*
Y115945D03*
X57086Y97740D03*
X55905Y112000D03*
X46851Y93307D03*
X38189Y97047D03*
X65748Y94000D03*
X64567Y115740D03*
Y108260D03*
X84331Y117500D03*
X75669Y113760D03*
Y121240D03*
G54D27*
G01X47244Y11614D02*
X9986D01*
X6500Y15100D01*
Y32500D01*
G01Y140000D02*
Y32500D01*
G01D02*
X16063D01*
G01X17500Y140000D02*
X6500D01*
G01D02*
Y146400D01*
X11155Y151055D01*
X42126D01*
G01D02*
X62500D01*
G01X42126Y143740D02*
Y151055D01*
G01X62500Y137500D02*
Y151055D01*
G01D02*
X71260D01*
G01D02*
Y145740D01*
G01X116535Y151302D02*
X71507D01*
X71260Y151055D01*
G01X102559Y51575D02*
Y78543D01*
X102756Y78740D01*
G01D02*
X109528D01*
X109590Y78802D01*
X150241D01*
G01X102756Y78740D02*
X96694D01*
X94094Y76140D01*
Y70866D01*
X94291Y70669D01*
Y70670D01*
G01X116535Y142716D02*
Y151302D01*
G01X125984D02*
X116535D01*
G01X150241Y78802D02*
Y12500D01*
X140000D01*
G01X150346Y94000D02*
Y78907D01*
X150241Y78802D01*
G01X125984Y151302D02*
X143698D01*
X150407Y144593D01*
Y94061D01*
X150346Y94000D01*
G01D02*
X138779D01*
G01X125984Y141339D02*
Y151302D01*
G54D18*
X42520Y70078D03*
X38780Y78740D03*
X46260D03*
X75000Y51831D03*
X78740Y43169D03*
X71260D03*
X82677Y137669D03*
X78937Y146331D03*
X86417D03*
X106299Y42913D03*
X102559Y51575D03*
X110039D03*
X132283Y45275D03*
X128543Y53937D03*
X136023D03*
G54D28*
G01X16260Y52500D02*
Y42500D01*
G01X23740D02*
Y38246D01*
X23937D01*
Y32500D01*
G01X23740Y62500D02*
Y52500D01*
G01X57086Y90260D02*
X57087D01*
Y85433D01*
X55420Y83766D01*
X34344D01*
X33071Y85039D01*
X25000D01*
G01X16260Y72500D02*
Y62500D01*
G01X24000Y114000D02*
X30090D01*
X31890Y115800D01*
G01X38189Y89567D02*
X33683D01*
X28762Y94488D01*
X25000D01*
G01X38189Y108465D02*
Y105313D01*
X36026Y103150D01*
X30006D01*
X29156Y104000D01*
X25394D01*
G01X47244Y31693D02*
Y19094D01*
G01Y39173D02*
Y51680D01*
X48517Y52953D01*
X52362D01*
G01X56693Y31693D02*
X68307D01*
X68504Y31890D01*
G01X52362Y60433D02*
Y61811D01*
X60826Y70275D01*
G01X42520Y70078D02*
Y58493D01*
X44320Y56693D01*
X56693D01*
G01D02*
X61024D01*
G01X56693Y39173D02*
Y50527D01*
X56788Y50622D01*
Y55283D01*
X56693Y55379D01*
Y56693D01*
G01X46260Y78740D02*
X63385D01*
X65748Y81103D01*
G01X74409Y68701D02*
X62401D01*
X60826Y70275D01*
G01X91322Y126322D02*
X90000Y125000D01*
Y99449D01*
X60826Y70275D01*
G01X31890Y115800D02*
X32035Y115945D01*
X38189D01*
G01X42126Y136260D02*
Y131721D01*
X40326Y129921D01*
X33690D01*
X31890Y128121D01*
Y115800D01*
G01X55905Y112000D02*
X55906D01*
Y102500D01*
G01D02*
X57087D01*
Y97740D01*
X57086D01*
G01X46851Y93307D02*
X51507D01*
X52500Y94300D01*
Y102500D01*
G01D02*
X39902D01*
X38189Y100787D01*
Y97047D01*
G01X52500Y102500D02*
X55906D01*
G01X46851Y112205D02*
X46850D01*
Y120700D01*
X48650Y122500D01*
X55400D01*
G01X58400Y129400D02*
Y125500D01*
X55400Y122500D01*
G01D02*
X62500D01*
G01X68504Y18989D02*
Y31890D01*
G01X107500Y37936D02*
X86554D01*
X81321Y43169D01*
X78740D01*
G01X68504Y31890D02*
Y36887D01*
X71260Y39643D01*
Y43169D01*
G01X75000Y51831D02*
Y46310D01*
X74938Y46248D01*
Y32934D01*
X76356Y31516D01*
X83661D01*
G01X74409Y61221D02*
Y61220D01*
X89742D01*
X90135Y61614D01*
X94291D01*
G01X88583Y88779D02*
Y88780D01*
X93034D01*
X95593Y86220D01*
X116527D01*
X118327Y88020D01*
Y92972D01*
G01X65748Y81103D02*
Y94000D01*
G01X84331Y117500D02*
Y99685D01*
X65748Y81103D01*
G01X88583Y81299D02*
X94161D01*
X95202Y82340D01*
X95203D01*
X95540Y82677D01*
X125175D01*
X127498Y85000D01*
X131260D01*
G01X73228Y95669D02*
Y99197D01*
X69925Y102500D01*
X66367D01*
X64567Y104300D01*
Y108260D01*
G01X62500Y122500D02*
X63760Y121240D01*
X75669D01*
G01Y113760D02*
Y107002D01*
X73507Y104839D01*
G01D02*
X75591Y102756D01*
X77953D01*
G01X73507Y104839D02*
X70000Y108346D01*
Y115000D01*
X69260Y115740D01*
X64567D01*
G01X86417Y146331D02*
X90700D01*
X92500Y144531D01*
Y127500D01*
X91322Y126322D01*
G01D02*
X86920D01*
X86645Y126046D01*
X66046D01*
X62500Y122500D01*
G01X82677Y129921D02*
Y137669D01*
G01X78937Y146331D02*
Y138260D01*
X71260D01*
G01X110236Y22500D02*
X105807D01*
G01X107500Y37936D02*
Y25236D01*
X110236Y22500D01*
G01X107500Y37936D02*
X124564D01*
X127500Y35000D01*
X137500D01*
X146400Y43900D01*
Y53150D01*
G01X120472Y49606D02*
Y42913D01*
G01D02*
X106299D01*
G01X120472D02*
X121260Y43701D01*
X126378D01*
X127953Y45276D01*
X132283D01*
Y45275D01*
G01X110039Y51575D02*
X114735D01*
X116535Y53375D01*
Y65551D01*
X115945Y66142D01*
G01X96673Y115000D02*
Y97500D01*
G01X131299Y94000D02*
Y102028D01*
X118327D01*
G01X109740Y126000D02*
X109937D01*
G01X116535Y135236D02*
X110143D01*
G01D02*
X109740Y134834D01*
Y126000D01*
G01X110143Y135236D02*
X110351Y135445D01*
Y144649D01*
X108760Y146240D01*
X105000D01*
G01X146400Y53150D02*
Y59488D01*
X143937Y61951D01*
X143740D01*
Y67500D01*
G01X136023Y53937D02*
X145613D01*
X146400Y53150D01*
G01X136260Y67500D02*
Y71951D01*
X134471Y73740D01*
X125000D01*
G01X122500Y123740D02*
X123062Y123178D01*
X131262D01*
X132500Y121940D01*
Y118740D01*
G01X142500Y106260D02*
X132500D01*
Y111260D01*
G01X144291Y126378D02*
Y121791D01*
X142500Y120000D01*
Y113740D01*
G01X136811Y126378D02*
X128528D01*
X125984Y128922D01*
Y133465D01*
G54D19*
X58400Y129400D03*
X54300Y137500D03*
X62500D03*
M02*
